<svg width="21" height="20" viewBox="0 0 21 20" fill="none" xmlns="http://www.w3.org/2000/svg">
<g id="Briefcase / 24 / Regular">
<path id="&#240;&#159;&#142;&#168; Color" d="M8.25578 2.5H13.6724C13.9889 2.5 14.2504 2.73513 14.2917 3.04019L14.2974 3.125V5.83333H15.7558C17.2515 5.83333 18.4641 7.0459 18.4641 8.54167V13.9583C18.4641 15.4541 17.2515 16.6667 15.7558 16.6667H6.17244C4.67667 16.6667 3.46411 15.4541 3.46411 13.9583V8.54167C3.46411 7.0459 4.67667 5.83333 6.17244 5.83333H7.63078V3.125C7.63078 2.80859 7.86591 2.54709 8.17097 2.50571L8.25578 2.5H13.6724H8.25578ZM15.7558 7.08333H6.17244C5.36703 7.08333 4.71411 7.73625 4.71411 8.54167V13.9583C4.71411 14.7637 5.36703 15.4167 6.17244 15.4167H15.7558C16.5612 15.4167 17.2141 14.7637 17.2141 13.9583V8.54167C17.2141 7.73625 16.5612 7.08333 15.7558 7.08333ZM13.0474 3.75H8.88078V5.83333H13.0474V3.75Z" fill="#112D48"/>
</g>
</svg>
