<svg width="15" height="15" viewBox="0 0 15 15" fill="none" xmlns="http://www.w3.org/2000/svg">
<g id="Dismiss / 24 / Filled">
<path id="&#240;&#159;&#142;&#168; Color" d="M2.62218 2.74194L2.67414 2.68306C2.89928 2.45776 3.25355 2.44042 3.49856 2.63107L3.5574 2.68306L7.48769 6.61562L11.418 2.68306C11.6619 2.43898 12.0573 2.43898 12.3012 2.68306C12.5452 2.92714 12.5452 3.32286 12.3012 3.56694L8.37145 7.5L12.3012 11.4331C12.5264 11.6584 12.5437 12.0129 12.3532 12.2581L12.3012 12.3169C12.0761 12.5422 11.7218 12.5596 11.4768 12.3689L11.418 12.3169L7.48769 8.38438L3.5574 12.3169C3.3135 12.561 2.91805 12.561 2.67414 12.3169C2.43023 12.0729 2.43023 11.6771 2.67414 11.4331L6.60394 7.5L2.67414 3.56694C2.449 3.34164 2.43168 2.98712 2.62218 2.74194L2.67414 2.68306L2.62218 2.74194Z" fill="white"/>
</g>
</svg>
