<svg width="20" height="20" viewBox="0 0 20 20" fill="none" xmlns="http://www.w3.org/2000/svg">
<g id="Data Line / 24 / Regular">
<path id="&#240;&#159;&#142;&#168; Color" fill-rule="evenodd" clip-rule="evenodd" d="M15.8333 3.75C15.143 3.75 14.5833 4.30964 14.5833 5C14.5833 5.69036 15.143 6.25 15.8333 6.25C16.5237 6.25 17.0833 5.69036 17.0833 5C17.0833 4.30964 16.5237 3.75 15.8333 3.75ZM13.3333 5C13.3333 3.61929 14.4526 2.5 15.8333 2.5C17.214 2.5 18.3333 3.61929 18.3333 5C18.3333 6.38071 17.214 7.5 15.8333 7.5C15.6985 7.5 15.5662 7.48933 15.4371 7.46878L13.7387 10.2674C14.0089 10.6667 14.1667 11.1483 14.1667 11.6667C14.1667 13.0474 13.0474 14.1667 11.6667 14.1667C10.9143 14.1667 10.2395 13.8343 9.7812 13.3084L6.66319 14.8671C6.6655 14.9111 6.66666 14.9554 6.66666 15C6.66666 16.3807 5.54738 17.5 4.16666 17.5C2.78595 17.5 1.66666 16.3807 1.66666 15C1.66666 13.6193 2.78595 12.5 4.16666 12.5C5.05513 12.5 5.83535 12.9635 6.27874 13.6618L9.22166 12.1906C9.18563 12.0217 9.16666 11.8464 9.16666 11.6667C9.16666 10.286 10.286 9.16667 11.6667 9.16667C12.0686 9.16667 12.4483 9.2615 12.7848 9.43002L14.2829 6.96132C13.7045 6.50342 13.3333 5.79505 13.3333 5ZM11.6667 10.4167C10.9763 10.4167 10.4167 10.9763 10.4167 11.6667C10.4167 12.357 10.9763 12.9167 11.6667 12.9167C12.357 12.9167 12.9167 12.357 12.9167 11.6667C12.9167 10.9763 12.357 10.4167 11.6667 10.4167ZM4.16666 13.75C3.47631 13.75 2.91666 14.3096 2.91666 15C2.91666 15.6904 3.47631 16.25 4.16666 16.25C4.85702 16.25 5.41666 15.6904 5.41666 15C5.41666 14.3096 4.85702 13.75 4.16666 13.75Z" fill="#19C20A"/>
</g>
</svg>
