<svg width="20" height="20" viewBox="0 0 20 20" fill="none" xmlns="http://www.w3.org/2000/svg">
<g id="Sign Out / 24 / Regular">
<path id="&#240;&#159;&#142;&#168; Color" d="M10.0001 3.62847V4.16665L11.4545 4.16666C11.7705 4.16666 12.0318 4.40126 12.0736 4.70593L12.0795 4.79063L12.0851 8.33333H10.8351L10.8305 5.41666L10.0001 5.41665L10.0005 9.17079L10.8351 9.16999L10.8359 9.16666H12.0867L12.0859 9.16999H16.2017L14.7664 7.73353C14.5445 7.5116 14.5244 7.16438 14.706 6.91973L14.7665 6.84965C14.9885 6.6278 15.3357 6.60768 15.5803 6.78927L15.6504 6.8498L18.1476 9.34784C18.3693 9.56956 18.3896 9.91639 18.2084 10.161L18.148 10.2311L15.6509 12.734C15.4071 12.9784 15.0113 12.9788 14.767 12.735C14.5448 12.5134 14.5243 12.1662 14.7055 11.9213L14.766 11.8511L16.1934 10.42L10.0005 10.4208L10.0001 14.1675L10.845 14.1679L10.8392 11.25H12.0901L12.096 14.7918C12.0966 15.1086 11.8613 15.3707 11.5559 15.4122L11.471 15.4179L10.0001 15.4175V16.0417C10.0001 16.4303 9.64911 16.7247 9.26638 16.6571L2.18304 15.4061C1.88442 15.3533 1.66675 15.0938 1.66675 14.7906V4.79166C1.66675 4.48558 1.88843 4.22452 2.19047 4.17492L9.2738 3.01173C9.65431 2.94924 10.0001 3.24286 10.0001 3.62847ZM8.75008 4.36448L2.91675 5.3224V14.2663L8.75008 15.2966V4.36448ZM7.08521 9.58333C7.54643 9.58333 7.92033 9.95723 7.92033 10.4185C7.92033 10.8797 7.54643 11.2536 7.08521 11.2536C6.62398 11.2536 6.25008 10.8797 6.25008 10.4185C6.25008 9.95723 6.62398 9.58333 7.08521 9.58333Z" fill="#FB3F73"/>
</g>
</svg>
