<svg width="20" height="20" viewBox="0 0 20 20" fill="none" xmlns="http://www.w3.org/2000/svg">
<rect width="20" height="20" fill="#F5F5F5"/>
<g id="&#208;&#155;&#208;&#184;&#209;&#135;&#208;&#189;&#209;&#139;&#208;&#185; &#208;&#186;&#208;&#176;&#208;&#177;&#208;&#184;&#208;&#189;&#208;&#181;&#209;&#130;">
<rect id="Rectangle 1" x="-842" y="-333" width="1440" height="842" fill="#ECE6E1"/>
<g id="&#208;&#152;&#209;&#129;&#209;&#130;&#208;&#190;&#209;&#128;&#208;&#184;&#209;&#143;">
<rect id="Rectangle 39" x="-51" y="-34" width="639" height="417" rx="15" fill="white"/>
<g id="Group 31">
<rect id="Rectangle 40" x="-15.75" y="-4.75" width="39.5" height="29.5" rx="4.75" fill="#B8F82F" stroke="black" stroke-width="0.5"/>
<g id="History / 24 / Regular">
<path id="&#240;&#159;&#142;&#168; Color" d="M10 2.5C14.1421 2.5 17.5 5.85786 17.5 10C17.5 14.1421 14.1421 17.5 10 17.5C8.57532 17.5 7.20787 17.1015 6.02567 16.3615C5.54412 16.0601 5.09808 15.7047 4.69639 15.303C4.29408 14.9006 3.93834 14.4538 3.63667 13.9714C2.89783 12.7898 2.5 11.4235 2.5 10C2.5 9.77154 2.51023 9.54423 2.53058 9.31856C2.56158 8.97478 2.8654 8.72121 3.20918 8.75221C3.55296 8.7832 3.80653 9.08702 3.77553 9.43081C3.75855 9.61917 3.75 9.80902 3.75 10C3.75 11.1874 4.08106 12.3244 4.69652 13.3086C4.94803 13.7109 5.24473 14.0835 5.58032 14.4192C5.9154 14.7543 6.28742 15.0506 6.6889 15.3019C7.6737 15.9184 8.81161 16.25 10 16.25C13.4518 16.25 16.25 13.4518 16.25 10C16.25 6.54822 13.4518 3.75 10 3.75C8.00226 3.75 6.16627 4.69401 4.99812 6.25164L7.29516 6.25174C7.64033 6.25174 7.92016 6.53157 7.92016 6.87674C7.92016 7.19316 7.68503 7.45465 7.37996 7.49604L7.29516 7.50174H3.54167C3.22525 7.50174 2.96376 7.26662 2.92237 6.96155L2.91667 6.87674V3.12674C2.91667 2.78157 3.19649 2.50174 3.54167 2.50174C3.85808 2.50174 4.11958 2.73687 4.16096 3.04194L4.16667 3.12674L4.16583 5.28623C5.57156 3.5467 7.6969 2.5 10 2.5ZM9.375 5.83333C9.69125 5.83333 9.95288 6.06861 9.99429 6.37356L10 6.45833V10H11.875C12.22 10 12.5 10.28 12.5 10.625C12.5 10.9412 12.2647 11.2029 11.9598 11.2443L11.875 11.25H9.375C9.05875 11.25 8.79712 11.0147 8.75571 10.7098L8.75 10.625V6.45833C8.75 6.11333 9.03 5.83333 9.375 5.83333Z" fill="#112D48"/>
</g>
</g>
</g>
</g>
</svg>
