<svg width="20" height="20" viewBox="0 0 20 20" fill="none" xmlns="http://www.w3.org/2000/svg">
<g id="Currency / 24 / Regular">
<g id="&#240;&#159;&#142;&#168; Color">
<path fill-rule="evenodd" clip-rule="evenodd" d="M5.20991 1.6687C5.55509 1.6687 5.83491 1.94852 5.83491 2.2937V2.55525C7.49204 2.85109 8.74998 4.29947 8.74998 6.04166V6.87609C8.74998 7.22127 8.47016 7.50109 8.12498 7.50109C7.7798 7.50109 7.49998 7.22127 7.49998 6.87609V6.04166C7.49998 4.99326 6.79597 4.10929 5.83491 3.83671V9.60847L6.52646 9.94566C7.8869 10.609 8.74998 11.99 8.74999 13.5036L8.74999 13.9405C8.74999 15.6817 7.49304 17.1309 5.83491 17.4269V17.7064C5.83491 18.0516 5.55509 18.3314 5.20991 18.3314C4.86473 18.3314 4.58491 18.0516 4.58491 17.7064V17.4275C2.92719 17.1331 1.66666 15.6848 1.66666 13.9405V13.1231C1.66666 12.778 1.94649 12.4981 2.29166 12.4981C2.63684 12.4981 2.91666 12.778 2.91666 13.1231V13.9405C2.91666 14.9906 3.62272 15.875 4.58491 16.1464V10.3897L3.89019 10.0509C2.52975 9.38759 1.66666 8.00654 1.66666 6.49299V6.04166C1.66666 4.29836 2.92621 2.84924 4.58491 2.55469V2.2937C4.58491 1.94852 4.86473 1.6687 5.20991 1.6687ZM2.91666 6.04166C2.91666 4.99211 3.62222 4.10735 4.58491 3.83582V8.99898L4.43803 8.92737C3.5072 8.47351 2.91666 7.52858 2.91666 6.49299V6.04166ZM5.83491 16.1454V10.9991L5.97862 11.0692C6.90945 11.5231 7.49998 12.468 7.49999 13.5036L7.49999 13.9405C7.49999 14.9884 6.79647 15.8728 5.83491 16.1454Z" fill="#112D48"/>
<path d="M12.0833 10C12.0833 9.8596 12.0865 9.7204 12.0926 9.58255L13.5402 9.58335C13.8854 9.58354 14.1653 9.30387 14.1655 8.95869C14.1657 8.61351 13.886 8.33354 13.5409 8.33335L12.2352 8.33263C12.4408 7.23049 12.8438 6.25746 13.3745 5.49601C14.1615 4.36688 15.188 3.75 16.25 3.75C16.639 3.75 17.0609 3.86353 17.3644 4.06356C17.6527 4.25348 18.0403 4.17378 18.2302 3.88555C18.4201 3.59732 18.3404 3.2097 18.0522 3.01978C17.5159 2.66642 16.8469 2.5 16.25 2.5C14.6657 2.5 13.2963 3.42214 12.349 4.78127C11.6701 5.75544 11.1866 6.97838 10.9666 8.33193L9.79217 8.33128C9.44699 8.33109 9.16702 8.61076 9.16683 8.95593C9.16664 9.30111 9.4463 9.58109 9.79148 9.58128L10.8415 9.58186C10.8361 9.72037 10.8333 9.85979 10.8333 10C10.8333 10.1397 10.8361 10.2787 10.8415 10.4167L9.79183 10.4167C9.44665 10.4167 9.16683 10.6965 9.16683 11.0417C9.16682 11.3869 9.44664 11.6667 9.79182 11.6667L10.9664 11.6667C11.1863 13.0208 11.6698 14.2442 12.349 15.2187C13.2963 16.5779 14.6657 17.5 16.25 17.5C16.8295 17.5 17.5145 17.36 18.0685 16.9747C18.3519 16.7775 18.4218 16.388 18.2247 16.1047C18.0275 15.8213 17.638 15.7514 17.3547 15.9485C17.0688 16.1474 16.6564 16.25 16.25 16.25C15.188 16.25 14.1615 15.6331 13.3745 14.504C12.8437 13.7424 12.4407 12.7691 12.2351 11.6667L13.5405 11.6667C13.8857 11.6667 14.1655 11.3869 14.1655 11.0417C14.1655 10.6965 13.8857 10.4167 13.5405 10.4167L12.0926 10.4167C12.0864 10.2791 12.0833 10.1402 12.0833 10Z" fill="#112D48"/>
</g>
</g>
</svg>
