<svg width="45" height="25" viewBox="0 0 45 25" fill="none" xmlns="http://www.w3.org/2000/svg">
<g id="Group 1">
<path id="Ellipse 1" d="M29.0948 16.3174C21.7447 16.3174 18.0515 16.3174 13.3693 16.3174C8.68703 16.3174 3.70266e-05 13.9863 1.30331e-10 8.15868C-3.70264e-05 2.33105 7.88924 1.01684e-05 13.3692 3.42254e-06C19.2995 -3.87756e-06 37.6467 2.56096e-06 45 3.93084e-06L37.1638 8.15868C34.0603 11.6721 29.0948 16.3174 29.0948 16.3174Z" fill="#212121"/>
<path id="Ellipse 3" opacity="0.9" d="M17.1756 7.93413C24.4396 7.93413 26.6327 7.93413 31.26 7.93413C35.8874 7.93413 44.4726 10.3721 44.4727 16.4671C44.4727 22.562 36.6759 25 31.2601 25C25.3993 25 7.26716 25 0 25L8.43447 16.4671C11.5782 13.3844 17.1756 7.93413 17.1756 7.93413Z" fill="#19C20A"/>
</g>
</svg>
