<svg width="12" height="12" viewBox="0 0 12 12" fill="none" xmlns="http://www.w3.org/2000/svg">
<g id="Person / 24 / Regular">
<path id="&#240;&#159;&#142;&#168; Color" d="M8.8771 7.00021C9.49811 7.00021 10.0015 7.50364 10.0015 8.12465V8.41236C10.0015 8.8595 9.84174 9.29192 9.55098 9.63161C8.7663 10.5483 7.57271 11.0008 6.00001 11.0008C4.42708 11.0008 3.23408 10.5482 2.45093 9.63108C2.16104 9.29163 2.00179 8.85988 2.00179 8.41349V8.12465C2.00179 7.50364 2.50521 7.00021 3.12622 7.00021H8.8771ZM8.8771 7.75021H3.12622C2.91943 7.75021 2.75179 7.91785 2.75179 8.12465V8.41349C2.75179 8.68132 2.84734 8.94037 3.02127 9.14404C3.64792 9.87789 4.63086 10.2508 6.00001 10.2508C7.36917 10.2508 8.35296 9.87787 8.9812 9.14391C9.15566 8.94009 9.25154 8.68064 9.25154 8.41236V8.12465C9.25154 7.91785 9.0839 7.75021 8.8771 7.75021ZM6.00001 1.00256C7.38073 1.00256 8.50001 2.12185 8.50001 3.50256C8.50001 4.88328 7.38073 6.00256 6.00001 6.00256C4.6193 6.00256 3.50001 4.88328 3.50001 3.50256C3.50001 2.12185 4.6193 1.00256 6.00001 1.00256ZM6.00001 1.75256C5.03352 1.75256 4.25001 2.53607 4.25001 3.50256C4.25001 4.46906 5.03352 5.25256 6.00001 5.25256C6.96651 5.25256 7.75001 4.46906 7.75001 3.50256C7.75001 2.53607 6.96651 1.75256 6.00001 1.75256Z" fill="#112D48"/>
</g>
</svg>
