<svg width="15" height="15" viewBox="0 0 15 15" fill="none" xmlns="http://www.w3.org/2000/svg">
<g id="Data Pie / 24 / Regular">
<path id="&#240;&#159;&#142;&#168; Color" d="M6.40625 2.65625C6.66513 2.65625 6.875 2.86612 6.875 3.125V8.125H11.875C12.1123 8.125 12.3084 8.30135 12.3395 8.53014L12.3438 8.59375C12.3438 11.7004 9.82535 13.9062 6.71875 13.9062C3.61215 13.9062 1.09375 11.3879 1.09375 8.28125C1.09375 5.17465 3.29965 2.65625 6.40625 2.65625ZM5.9375 3.61688L5.80693 3.6317C3.50112 3.92597 2.03125 5.89546 2.03125 8.28125C2.03125 10.8701 4.12992 12.9688 6.71875 12.9688C9.10454 12.9688 11.074 11.4989 11.3683 9.19307L11.3825 9.0625H6.40625C6.16894 9.0625 5.97282 8.88615 5.94178 8.65736L5.9375 8.59375V3.61688ZM8.28125 1.09375C11.3879 1.09375 13.9062 3.61215 13.9062 6.71875C13.9062 6.97763 13.6964 7.1875 13.4375 7.1875H8.28125C8.02237 7.1875 7.8125 6.97763 7.8125 6.71875V1.5625C7.8125 1.30362 8.02237 1.09375 8.28125 1.09375ZM8.75 2.05437V6.25H12.945L12.9308 6.11943C12.6616 4.00986 10.9901 2.33842 8.88057 2.0692L8.75 2.05437Z" fill="#212121"/>
</g>
</svg>
