<svg width="15" height="15" viewBox="0 0 15 15" fill="none" xmlns="http://www.w3.org/2000/svg">
<g id="Board / 24 / Regular">
<path id="&#240;&#159;&#142;&#168; Color" d="M11.4071 1.56137C12.4902 1.56137 13.3754 2.40907 13.4352 3.47729L13.4384 3.59256L13.438 11.0949C13.4379 12.2167 12.5285 13.1261 11.4067 13.1261H3.90629C2.82313 13.1261 1.93797 12.2784 1.87822 11.2102L1.875 11.095L1.87538 3.59257C1.87551 2.4708 2.78489 1.56137 3.90666 1.56137H11.4071ZM7.1875 5.93637L2.8125 5.937L2.81256 11.0949L2.81705 11.1954C2.86774 11.7524 3.33603 12.1886 3.90625 12.1886L7.1875 12.1882V5.93637ZM12.5 9.68637L8.125 9.687V12.1882L11.4067 12.1886C12.0107 12.1886 12.5004 11.6989 12.5005 11.0949L12.5 9.68637ZM11.4071 2.49887L8.125 2.49825V8.7495L12.5 8.74887L12.5008 3.5926L12.4963 3.49215C12.4456 2.93515 11.9773 2.49887 11.4071 2.49887ZM7.1875 2.49825L3.90671 2.49887L3.81702 2.5025C3.25491 2.54817 2.81294 3.01881 2.81288 3.59264L2.8125 4.9995L7.1875 4.99887V2.49825Z" fill="#212121"/>
</g>
</svg>
