<svg width="21" height="20" viewBox="0 0 21 20" fill="none" xmlns="http://www.w3.org/2000/svg">
<g id="Add / 24 / Filled">
<path id="&#240;&#159;&#142;&#168; Color" d="M10.0099 2.50561L10.107 2.5C10.5341 2.5 10.8861 2.8217 10.9342 3.23615L10.9398 3.33333V9.16667H16.769C17.1961 9.16667 17.548 9.48837 17.5961 9.90282L17.6017 10C17.6017 10.4274 17.2803 10.7796 16.8661 10.8277L16.769 10.8333H10.9398V16.6667C10.9398 17.094 10.6183 17.4463 10.2041 17.4944L10.107 17.5C9.67996 17.5 9.32799 17.1783 9.27988 16.7639L9.27428 16.6667V10.8333H3.44505C3.01799 10.8333 2.66601 10.5116 2.61791 10.0972L2.6123 10C2.6123 9.57264 2.93378 9.22041 3.34794 9.17227L3.44505 9.16667H9.27428V3.33333C9.27428 2.90597 9.59575 2.55374 10.0099 2.50561L10.107 2.5L10.0099 2.50561Z" fill="#112D48"/>
</g>
</svg>
