<svg width="16" height="16" viewBox="0 0 16 16" fill="none" xmlns="http://www.w3.org/2000/svg">
<g id="Board / 24 / Regular">
<path id="&#240;&#159;&#142;&#168; Color" d="M11.8046 2.1438C12.8877 2.1438 13.7729 2.9915 13.8326 4.05972L13.8358 4.17498L13.8355 11.6774C13.8353 12.7991 12.926 13.7086 11.8042 13.7086H4.30375C3.22059 13.7086 2.33543 12.8609 2.27568 11.7927L2.27246 11.6774L2.27284 4.17499C2.27297 3.05323 3.18235 2.1438 4.30412 2.1438H11.8046ZM7.58496 6.5188L3.20996 6.51942L3.21003 11.6773L3.21451 11.7778C3.2652 12.3348 3.73349 12.7711 4.30371 12.7711L7.58496 12.7707V6.5188ZM12.8975 10.2688L8.52246 10.2694V12.7707L11.8041 12.7711C12.4082 12.7711 12.8979 12.2813 12.898 11.6773L12.8975 10.2688ZM11.8046 3.0813L8.52246 3.08067V9.33192L12.8975 9.3313L12.8983 4.17503L12.8938 4.07458C12.8431 3.51758 12.3748 3.0813 11.8046 3.0813ZM7.58496 3.08067L4.30417 3.0813L4.21448 3.08493C3.65237 3.1306 3.2104 3.60123 3.21034 4.17507L3.20996 5.58192L7.58496 5.5813V3.08067Z" fill="#212121"/>
</g>
</svg>
