<svg width="15" height="15" viewBox="0 0 15 15" fill="none" xmlns="http://www.w3.org/2000/svg">
<g id="People Community / 24 / Regular">
<path id="&#240;&#159;&#142;&#168; Color" d="M9.21875 9.375C9.82281 9.375 10.3125 9.86469 10.3125 10.4688L10.3118 11.07C10.3847 12.4382 9.36747 13.1306 7.54174 13.1306C5.72366 13.1306 4.6875 12.4495 4.6875 11.0938V10.4688C4.6875 9.86469 5.17719 9.375 5.78125 9.375H9.21875ZM9.21875 10.3125H5.78125C5.69496 10.3125 5.625 10.3825 5.625 10.4688V11.0938C5.625 11.8289 6.17917 12.1931 7.54174 12.1931C8.89668 12.1931 9.41408 11.841 9.375 11.095V10.4688C9.375 10.3825 9.30504 10.3125 9.21875 10.3125ZM2.34375 6.25L5.07875 6.25005C5.02734 6.4498 5 6.65921 5 6.875C5 6.98069 5.00656 7.08485 5.01929 7.18709L2.34375 7.1875C2.25746 7.1875 2.1875 7.25746 2.1875 7.34375V7.96875C2.1875 8.70386 2.74167 9.06815 4.10424 9.06815C4.39293 9.06815 4.6436 9.05216 4.85897 9.01978C4.50573 9.24356 4.24091 9.5931 4.12576 10.0051L4.10424 10.0056C2.28616 10.0056 1.25 9.32451 1.25 7.96875V7.34375C1.25 6.73969 1.73969 6.25 2.34375 6.25ZM12.6562 6.25C13.2603 6.25 13.75 6.73969 13.75 7.34375L13.7493 7.94504C13.8222 9.31322 12.805 10.0056 10.9792 10.0056L10.8741 10.0045C10.7557 9.58139 10.4794 9.22419 10.1127 9.00047C10.3543 9.04584 10.642 9.06815 10.9792 9.06815C12.3342 9.06815 12.8516 8.71597 12.8125 7.96999V7.34375C12.8125 7.25746 12.7425 7.1875 12.6562 7.1875L9.98072 7.18701C9.99345 7.08479 10 6.98066 10 6.875C10 6.65921 9.97266 6.4498 9.92125 6.25005L12.6562 6.25ZM7.5 5C8.53553 5 9.375 5.83947 9.375 6.875C9.375 7.91053 8.53553 8.75 7.5 8.75C6.46447 8.75 5.625 7.91053 5.625 6.875C5.625 5.83947 6.46447 5 7.5 5ZM7.5 5.9375C6.98223 5.9375 6.5625 6.35723 6.5625 6.875C6.5625 7.39277 6.98223 7.8125 7.5 7.8125C8.01777 7.8125 8.4375 7.39277 8.4375 6.875C8.4375 6.35723 8.01777 5.9375 7.5 5.9375ZM4.0625 1.875C5.09803 1.875 5.9375 2.71447 5.9375 3.75C5.9375 4.78553 5.09803 5.625 4.0625 5.625C3.02697 5.625 2.1875 4.78553 2.1875 3.75C2.1875 2.71447 3.02697 1.875 4.0625 1.875ZM10.9375 1.875C11.973 1.875 12.8125 2.71447 12.8125 3.75C12.8125 4.78553 11.973 5.625 10.9375 5.625C9.90197 5.625 9.0625 4.78553 9.0625 3.75C9.0625 2.71447 9.90197 1.875 10.9375 1.875ZM4.0625 2.8125C3.54473 2.8125 3.125 3.23223 3.125 3.75C3.125 4.26777 3.54473 4.6875 4.0625 4.6875C4.58027 4.6875 5 4.26777 5 3.75C5 3.23223 4.58027 2.8125 4.0625 2.8125ZM10.9375 2.8125C10.4197 2.8125 10 3.23223 10 3.75C10 4.26777 10.4197 4.6875 10.9375 4.6875C11.4553 4.6875 11.875 4.26777 11.875 3.75C11.875 3.23223 11.4553 2.8125 10.9375 2.8125Z" fill="#112D48"/>
</g>
</svg>
