<svg width="20" height="20" viewBox="0 0 20 20" fill="none" xmlns="http://www.w3.org/2000/svg">
<g id="Person / 24 / Regular">
<path id="&#240;&#159;&#142;&#168; Color" d="M14.795 11.6666C15.8301 11.6666 16.6691 12.5056 16.6691 13.5407V14.0202C16.6691 14.7654 16.4028 15.4861 15.9182 16.0523C14.6104 17.5802 12.621 18.3342 9.9999 18.3342C7.37835 18.3342 5.39 17.5799 4.08475 16.0514C3.60161 15.4856 3.33618 14.766 3.33618 14.0221V13.5407C3.33618 12.5056 4.17523 11.6666 5.21025 11.6666H14.795ZM14.795 12.9166H5.21025C4.86558 12.9166 4.58618 13.196 4.58618 13.5407V14.0221C4.58618 14.4684 4.74544 14.9002 5.03532 15.2396C6.07975 16.4627 7.71798 17.0842 9.9999 17.0842C12.2818 17.0842 13.9215 16.4627 14.9685 15.2394C15.2593 14.8997 15.4191 14.4673 15.4191 14.0202V13.5407C15.4191 13.196 15.1397 12.9166 14.795 12.9166ZM9.9999 1.67052C12.3011 1.67052 14.1666 3.536 14.1666 5.83718C14.1666 8.13837 12.3011 10.0039 9.9999 10.0039C7.69871 10.0039 5.83323 8.13837 5.83323 5.83718C5.83323 3.536 7.69871 1.67052 9.9999 1.67052ZM9.9999 2.92052C8.38907 2.92052 7.08323 4.22635 7.08323 5.83718C7.08323 7.44801 8.38907 8.75385 9.9999 8.75385C11.6107 8.75385 12.9166 7.44801 12.9166 5.83718C12.9166 4.22635 11.6107 2.92052 9.9999 2.92052Z" fill="#19C20A"/>
</g>
</svg>
