<svg width="20" height="20" viewBox="0 0 20 20" fill="none" xmlns="http://www.w3.org/2000/svg">
<g id="Target / 24 / Regular">
<g id="&#240;&#159;&#142;&#168; Color">
<path d="M9.99998 11.6667C10.9205 11.6667 11.6666 10.9205 11.6666 10C11.6666 9.07953 10.9205 8.33334 9.99998 8.33334C9.0795 8.33334 8.33331 9.07953 8.33331 10C8.33331 10.9205 9.0795 11.6667 9.99998 11.6667Z" fill="#212121"/>
<path fill-rule="evenodd" clip-rule="evenodd" d="M4.99998 10C4.99998 7.23858 7.23856 5.00001 9.99998 5.00001C12.7614 5.00001 15 7.23858 15 10C15 12.7614 12.7614 15 9.99998 15C7.23856 15 4.99998 12.7614 4.99998 10ZM9.99998 6.25C7.92891 6.25 6.24998 7.92894 6.24998 10C6.24998 12.0711 7.92891 13.75 9.99998 13.75C12.071 13.75 13.75 12.0711 13.75 10C13.75 7.92894 12.071 6.25 9.99998 6.25Z" fill="#212121"/>
<path fill-rule="evenodd" clip-rule="evenodd" d="M1.66492 10C1.66492 5.39666 5.39666 1.66492 10 1.66492C14.6033 1.66492 18.3351 5.39666 18.3351 10C18.3351 14.6033 14.6033 18.3351 10 18.3351C5.39666 18.3351 1.66492 14.6033 1.66492 10ZM10 2.91492C6.08702 2.91492 2.91492 6.08702 2.91492 10C2.91492 13.913 6.08702 17.0851 10 17.0851C13.913 17.0851 17.0851 13.913 17.0851 10C17.0851 6.08702 13.913 2.91492 10 2.91492Z" fill="#212121"/>
</g>
</g>
</svg>
