<svg width="12" height="12" viewBox="0 0 12 12" fill="none" xmlns="http://www.w3.org/2000/svg">
<g id="People Search / 24 / Regular">
<path id="&#240;&#159;&#142;&#168; Color" d="M5.95453 6.9993L9.87653 6.99997C10.4978 6.99997 11.0015 7.50365 11.0015 8.12497V8.57751C11.0015 9.12435 10.7628 9.64394 10.3479 10.0001C9.56517 10.6721 8.445 11.0005 7 11.0005L6.91048 11C7.02733 10.7647 7.03169 10.4878 6.92366 10.2494L7 10.2505C8.27999 10.2505 9.2289 9.97234 9.85934 9.43109C10.1083 9.21736 10.2515 8.90561 10.2515 8.57751V8.12497C10.2515 7.91786 10.0836 7.74997 9.87653 7.74997L5.98875 7.74999C5.99622 7.66735 6 7.58396 6 7.50001C6 7.32901 5.98439 7.16166 5.95453 6.9993ZM3.25 5.25001C4.49264 5.25001 5.5 6.25737 5.5 7.50001C5.5 8.04691 5.30487 8.54824 4.98044 8.93817L6.39137 10.3453C6.538 10.4916 6.53828 10.729 6.39201 10.8756C6.25903 11.0089 6.05071 11.0213 5.90378 10.9125L5.86168 10.8763L4.41013 9.42825C4.07137 9.6325 3.67441 9.75001 3.25 9.75001C2.00736 9.75001 1 8.74265 1 7.50001C1 6.25737 2.00736 5.25001 3.25 5.25001ZM3.25 6.00001C2.42157 6.00001 1.75 6.67158 1.75 7.50001C1.75 8.32843 2.42157 9.00001 3.25 9.00001C4.07843 9.00001 4.75 8.32843 4.75 7.50001C4.75 6.67158 4.07843 6.00001 3.25 6.00001ZM7 1.00232C8.38071 1.00232 9.5 2.12161 9.5 3.50232C9.5 4.88303 8.38071 6.00232 7 6.00232C5.61929 6.00232 4.5 4.88303 4.5 3.50232C4.5 2.12161 5.61929 1.00232 7 1.00232ZM7 1.75232C6.0335 1.75232 5.25 2.53582 5.25 3.50232C5.25 4.46882 6.0335 5.25232 7 5.25232C7.9665 5.25232 8.75 4.46882 8.75 3.50232C8.75 2.53582 7.9665 1.75232 7 1.75232Z" fill="#112D48"/>
</g>
</svg>
