<svg width="317" height="93" viewBox="0 0 317 93" fill="none" xmlns="http://www.w3.org/2000/svg">
<path d="M1.06983 83.5138L2.07001 90.5002L4.68582 79.5003L7.68581 73.0003L10.6858 77.5004L13.6858 65.5004L16.1858 70.0004L18.6858 53.0001L21.6858 57.5002L24.6858 77.5004L28.1858 65.5004L32.6858 46.5002L36.1858 36.5002L39.1858 41.0002L41.6858 27.5L44.6858 36.5002L48.6858 46.5002L53.1858 41.0002L57.6858 50L61.6858 34.5L63.6858 46.5002L68.1858 53.0001L73.6858 50L77.6858 57.5002L80.1858 63L84.1858 53.0001L88.1858 67.5L92.6858 55L96.1858 53.0001L98.6858 41.0002L102.186 50L108.186 53.0002L113.186 53.0001L115.686 63L121.186 67.5L124.686 79.5003L127.186 63L133.686 57.5002L136.686 63L140.186 73.0003L144.186 79.5003L147.686 87.5L154.186 92L157.686 83L161.686 75.5L165.686 79.5003L169.186 70.0004L174.186 63L176.686 67.5L179.186 46.5002L183.186 50L187.186 32L194.186 57.5002L197.686 53.0001L201.186 41.0002L205.686 63L209.686 46.5002L214.186 53.0001L217.186 50L219.186 43L223.686 38.5L226.686 29.5L230.186 34.5L232.186 24.5L236.686 22.5L240.686 16.5L245.186 11L248.686 14.5L251.686 6.5L256.686 1.5L261.186 11L265.686 14.5L270.686 11L275.186 16.5L282.186 20L287.186 14.5L293.186 8.51382L297.186 14.5L300.186 3.5L308.186 20L316.07 8.51382" stroke="#F8E23C"/>
</svg>